<?xml version="1.0" encoding="UTF-8" standalone="no"?> <svg width="64" height="64" viewBox="0 0 64 64" fill="none" xmlns="http://www.w3.org/2000/svg">
<path d="M22.89 42.11C22.6913 42.1111 22.4969 42.0531 22.3314 41.9433C22.1658 41.8335 22.0368 41.6769 21.9606 41.4934C21.8844 41.31 21.8646 41.108 21.9037 40.9133C21.9428 40.7185 22.0389 40.5398 22.18 40.4L26.52 36.06C26.7083 35.8717 26.9637 35.7659 27.23 35.7659C27.4963 35.7659 27.7517 35.8717 27.94 36.06C28.1283 36.2483 28.2341 36.5037 28.2341 36.77C28.2341 37.0363 28.1283 37.2917 27.94 37.48L23.6 41.82C23.5065 41.9126 23.3957 41.986 23.2739 42.0357C23.152 42.0855 23.0216 42.1107 22.89 42.11Z" fill="#999999"/>
<path d="M23.59 40.41C22.6039 39.4263 21.2679 38.8738 19.875 38.8738C18.4821 38.8738 17.1461 39.4263 16.16 40.41L4.54997 52C-0.230025 57.05 6.99997 64.23 12 59.45L23.59 47.84C24.5737 46.8539 25.1262 45.5179 25.1262 44.125C25.1262 42.7321 24.5737 41.3961 23.59 40.41V40.41Z" fill="#666666"/>
<path d="M55.05 8.99999C35.34 -9.19001 8.39001 17.78 26.52 37.48C28.3935 39.3538 30.6184 40.8395 33.0671 41.8519C35.5158 42.8644 38.1403 43.3836 40.79 43.38C58.5 43.49 67.75 21.59 55.05 8.99999ZM51.35 33.83C36.76 47.22 16.78 27.24 30.22 12.65C33.022 9.84798 36.8224 8.27383 40.785 8.27383C44.7477 8.27383 48.548 9.84798 51.35 12.65C54.152 15.452 55.7262 19.2524 55.7262 23.215C55.7262 27.1776 54.152 30.978 51.35 33.78V33.83Z" fill="#999999"/>
<path d="M43.9099 23.27C43.057 22.4604 41.9259 22.009 40.7499 22.009C39.574 22.009 38.4429 22.4604 37.5899 23.27L34.3299 26.35C33.8224 26.8331 33.4726 27.4583 33.3262 28.1435C33.1798 28.8288 33.2437 29.5423 33.5095 30.1907C33.7753 30.839 34.2307 31.392 34.816 31.7773C35.4013 32.1626 36.0893 32.3622 36.7899 32.35C38.2099 32.35 39.2999 31.63 40.7899 31.64C42.2799 31.65 43.4399 32.26 44.7899 32.34C45.4942 32.36 46.1876 32.1638 46.777 31.778C47.3665 31.3922 47.8237 30.8352 48.0872 30.1819C48.3507 29.5285 48.4079 28.8102 48.2511 28.1233C48.0943 27.4365 47.7309 26.8142 47.2099 26.34L43.9099 23.27Z" fill="#CCCCCC"/>
<path d="M49.2099 18.5701C45.6799 17.9501 44.4799 24.8101 47.6699 25.4801C51.2199 26.1001 52.3899 19.2401 49.2099 18.5701Z" fill="#CCCCCC"/>
<path d="M35.5899 21.47C35.1599 19.54 33.7099 18.26 32.2899 18.58C29.7699 19.24 30.0299 23.21 31.6399 24.74C33.7999 26.86 36.3599 24.4 35.5899 21.47Z" fill="#CCCCCC"/>
<path d="M37.84 21.9301C39.32 21.9301 40.52 20.5601 40.75 18.7101C41.4 23.3801 46.62 22.7101 46.63 18.0501C46.64 13.3901 41.4 12.7201 40.75 17.3901C40.09 12.7201 34.88 13.3901 34.87 18.0501C34.87 20.2301 36.18 21.9301 37.84 21.9301Z" fill="#CCCCCC"/>
</svg>
