<?xml version="1.0" ?><!DOCTYPE svg  PUBLIC '-//W3C//DTD SVG 1.1//EN'  'http://www.w3.org/Graphics/SVG/1.1/DTD/svg11.dtd'><svg enable-background="new 0 0 32 32"  id="Слой_1" version="1.1" viewBox="0 0 32 32"  xml:space="preserve" xmlns="http://www.w3.org/2000/svg" xmlns:xlink="http://www.w3.org/1999/xlink"><path clip-rule="evenodd" d="M1,2.053h3h7.455H19v0.025c6.117,0.264,11,5.292,11,11.475  c0,6.182-4.883,11.211-11,11.475v0.025h-7.545H4H3.362l3.294-3.294c0.389-0.389,0.389-1.025,0-1.414s-1.025-0.389-1.414,0  l-4.95,4.95c-0.201,0.201-0.293,0.467-0.287,0.732c-0.007,0.265,0.086,0.531,0.287,0.732l4.95,4.95c0.389,0.389,1.025,0.389,1.414,0  s0.389-1.025,0-1.414l-3.242-3.241H19c0.059,0,0.109-0.024,0.165-0.034C26.31,26.67,32,20.784,32,13.553  c0-7.456-6.044-13.5-13.5-13.5c-0.135,0-0.266,0.016-0.401,0.02c-0.034-0.004-0.064-0.02-0.099-0.02H1c-0.55,0-1,0.45-1,1  C0,1.603,0.45,2.053,1,2.053z" fill="#121313" fill-rule="evenodd"/><g/><g/><g/><g/><g/><g/></svg>